<svg xmlns="http://www.w3.org/2000/svg" width="1400" height="720" viewBox="0 0 1400 720">
  <rect width="1400" height="720" fill="#ffffff"/>
  <style>
    .title { font: 700 34px Arial, sans-serif; fill: #18212b; }
    .head { font: 700 22px Arial, sans-serif; fill: #18212b; }
    .body { font: 18px Arial, sans-serif; fill: #34404c; }
    .count { font: 700 29px Arial, sans-serif; fill: #18212b; }
    .note { font: 16px Arial, sans-serif; fill: #4d5965; }
    .line { stroke: #61707e; stroke-width: 3; fill: none; }
    .box { stroke-width: 2.5; rx: 8; }
  </style>

  <text x="700" y="46" text-anchor="middle" class="title">Four mutually exclusive D3-I-S groups</text>

  <rect x="35" y="270" width="210" height="120" class="box" fill="#eef3f7" stroke="#607889"/>
  <text x="140" y="310" text-anchor="middle" class="head">Checker-eligible</text>
  <text x="140" y="342" text-anchor="middle" class="head">cases</text>
  <text x="140" y="376" text-anchor="middle" class="count">N = 915</text>

  <path d="M245 330 H280 M280 330 V165 H320 M280 330 V470 H320" class="line"/>

  <rect x="320" y="100" width="240" height="130" class="box" fill="#e9f4e7" stroke="#4d8d48"/>
  <text x="440" y="140" text-anchor="middle" class="head">Committed primary</text>
  <text x="440" y="174" text-anchor="middle" class="body">S = 1</text>
  <text x="440" y="211" text-anchor="middle" class="count">518</text>

  <rect x="320" y="405" width="240" height="130" class="box" fill="#fcebea" stroke="#b6534c"/>
  <text x="440" y="445" text-anchor="middle" class="head">Primary disagreement</text>
  <text x="440" y="479" text-anchor="middle" class="body">S = 0</text>
  <text x="440" y="516" text-anchor="middle" class="count">397</text>

  <path d="M560 165 H640" class="line"/>
  <rect x="640" y="95" width="720" height="140" class="box" fill="#e9f4e7" stroke="#4d8d48"/>
  <text x="1000" y="137" text-anchor="middle" class="head">Committed-primary agreement</text>
  <text x="1000" y="174" text-anchor="middle" class="body">Grouped regardless of D3 or I</text>
  <text x="1000" y="215" text-anchor="middle" class="count">518</text>

  <path d="M560 470 H600 M600 470 V335 H640 M600 470 V585 H640" class="line"/>

  <rect x="640" y="275" width="250" height="120" class="box" fill="#f6f7f8" stroke="#7b8791"/>
  <text x="765" y="314" text-anchor="middle" class="head">Gold label not ranked</text>
  <text x="765" y="347" text-anchor="middle" class="body">D3 = 0</text>
  <text x="765" y="381" text-anchor="middle" class="count">113</text>

  <path d="M890 335 H970" class="line"/>
  <rect x="970" y="270" width="390" height="130" class="box" fill="#f6f7f8" stroke="#7b8791"/>
  <text x="1165" y="309" text-anchor="middle" class="head">Top-3 candidate miss</text>
  <text x="1165" y="343" text-anchor="middle" class="body">S = 0, D3 = 0</text>
  <text x="1165" y="382" text-anchor="middle" class="count">113</text>

  <rect x="640" y="525" width="250" height="120" class="box" fill="#e8f2fb" stroke="#3d78a8"/>
  <text x="765" y="564" text-anchor="middle" class="head">Gold label ranked</text>
  <text x="765" y="597" text-anchor="middle" class="body">D3 = 1</text>
  <text x="765" y="631" text-anchor="middle" class="count">284</text>

  <path d="M890 585 H925 M925 585 V500 H970 M925 585 V625 H970" class="line"/>

  <rect x="970" y="440" width="390" height="115" class="box" fill="#fff4e7" stroke="#b87828"/>
  <text x="1165" y="474" text-anchor="middle" class="head">Gold label ranked but</text>
  <text x="1165" y="502" text-anchor="middle" class="head">not included</text>
  <text x="1080" y="536" text-anchor="middle" class="body">I = 0</text>
  <text x="1290" y="538" text-anchor="middle" class="count">12</text>

  <rect x="970" y="570" width="390" height="115" class="box" fill="#f5efe8" stroke="#9b7246"/>
  <text x="1165" y="604" text-anchor="middle" class="head">Gold label ranked and included</text>
  <text x="1165" y="632" text-anchor="middle" class="head">but not selected</text>
  <text x="1080" y="666" text-anchor="middle" class="body">I = 1</text>
  <text x="1290" y="668" text-anchor="middle" class="count">272</text>

  <text x="700" y="710" text-anchor="middle" class="note">Cases are assigned by S first, then D3 and I; this classification order is not a runtime sequence.</text>
</svg>
