<svg xmlns="http://www.w3.org/2000/svg" width="1400" height="720" viewBox="0 0 1400 720">
  <rect width="1400" height="720" fill="#ffffff"/>
  <style>
    .title { font: 700 34px Arial, sans-serif; fill: #18212b; }
    .head { font: 700 24px Arial, sans-serif; fill: #18212b; }
    .body { font: 19px Arial, sans-serif; fill: #34404c; }
    .count { font: 700 30px Arial, sans-serif; fill: #18212b; }
    .note { font: 17px Arial, sans-serif; fill: #4d5965; }
    .line { stroke: #61707e; stroke-width: 3; fill: none; }
    .box { stroke-width: 2.5; rx: 8; }
  </style>

  <text x="700" y="48" text-anchor="middle" class="title">Recorded D3-R-S profiles</text>

  <rect x="45" y="275" width="205" height="120" class="box" fill="#eef3f7" stroke="#607889"/>
  <text x="147" y="315" text-anchor="middle" class="head">Eligible cases</text>
  <text x="147" y="360" text-anchor="middle" class="count">N = 915</text>

  <path d="M250 335 H315 M315 335 V175 H365 M315 335 V505 H365" class="line"/>

  <rect x="365" y="105" width="230" height="135" class="box" fill="#e8f2fb" stroke="#3d78a8"/>
  <text x="480" y="145" text-anchor="middle" class="head">Gold label ranked</text>
  <text x="480" y="180" text-anchor="middle" class="body">D3 = Yes</text>
  <text x="480" y="215" text-anchor="middle" class="count">802</text>

  <rect x="365" y="438" width="230" height="135" class="box" fill="#f6f7f8" stroke="#7b8791"/>
  <text x="480" y="478" text-anchor="middle" class="head">Not in Top-3</text>
  <text x="480" y="513" text-anchor="middle" class="body">D3 = No</text>
  <text x="480" y="548" text-anchor="middle" class="count">113</text>

  <path d="M595 172 H655 M655 172 V115 H705 M655 172 V267 H705" class="line"/>
  <path d="M595 505 H655 M655 505 V450 H705 M655 505 V595 H705" class="line"/>

  <rect x="705" y="65" width="235" height="105" class="box" fill="#e8f6f1" stroke="#2e8b72"/>
  <text x="822" y="102" text-anchor="middle" class="head">Gold label included</text>
  <text x="822" y="134" text-anchor="middle" class="body">R = Yes</text>
  <text x="905" y="134" text-anchor="middle" class="count">778</text>

  <rect x="705" y="215" width="235" height="105" class="box" fill="#fff4e7" stroke="#b87828"/>
  <text x="822" y="252" text-anchor="middle" class="head">Gold label absent</text>
  <text x="822" y="284" text-anchor="middle" class="body">R = No</text>
  <text x="905" y="284" text-anchor="middle" class="count">24</text>

  <rect x="705" y="398" width="235" height="105" class="box" fill="#e8f6f1" stroke="#2e8b72"/>
  <text x="822" y="435" text-anchor="middle" class="head">Gold label included</text>
  <text x="822" y="467" text-anchor="middle" class="body">R = Yes</text>
  <text x="905" y="467" text-anchor="middle" class="count">79</text>

  <rect x="705" y="543" width="235" height="105" class="box" fill="#f6f7f8" stroke="#7b8791"/>
  <text x="822" y="580" text-anchor="middle" class="head">Gold label absent</text>
  <text x="822" y="612" text-anchor="middle" class="body">R = No</text>
  <text x="905" y="612" text-anchor="middle" class="count">34</text>

  <path d="M940 117 H1000 M1000 117 V82 H1045 M1000 117 V187 H1045" class="line"/>
  <path d="M940 267 H990 V318 H1045" class="line"/>

  <rect x="1045" y="35" width="305" height="95" class="box" fill="#e9f4e7" stroke="#4d8d48"/>
  <text x="1197" y="62" text-anchor="middle" class="head">Committed-primary</text>
  <text x="1197" y="88" text-anchor="middle" class="head">agreement</text>
  <text x="1197" y="119" text-anchor="middle" class="count">506</text>

  <rect x="1045" y="145" width="305" height="105" class="box" fill="#fcebea" stroke="#b6534c"/>
  <text x="1197" y="175" text-anchor="middle" class="head">Ranked and compatible</text>
  <text x="1197" y="201" text-anchor="middle" class="head">but not selected</text>
  <text x="1197" y="235" text-anchor="middle" class="count">272</text>

  <rect x="1045" y="265" width="305" height="105" class="box" fill="#f5efe8" stroke="#9b7246"/>
  <text x="1197" y="300" text-anchor="middle" class="head">Commitment when R = No</text>
  <text x="1197" y="334" text-anchor="middle" class="body">12 agreement; 12 disagreement</text>

  <text x="700" y="692" text-anchor="middle" class="note">R indicates gold-label inclusion in the criterion-compatible set; the diagram summarizes joint profiles rather than a strict runtime funnel.</text>
</svg>
