<svg xmlns="http://www.w3.org/2000/svg" width="1200" height="759" viewBox="0 0 1400 885">
  <rect width="1200" height="759" fill="#ffffff"/>
  <defs>
    <marker id="arrow-solid" viewBox="0 0 10 10" refX="9" refY="5" markerWidth="8" markerHeight="8" orient="auto-start-reverse">
      <path d="M 0 0 L 10 5 L 0 10 z" fill="#52606d"/>
    </marker>
  </defs>
  <style>
    text { font-family: Verdana, Arial, sans-serif; fill: #1f2933; }
    .title { font-size: 29px; font-weight: 700; }
    .heading { font-size: 25px; font-weight: 700; }
    .detail { font-size: 20px; }
    .small-detail { font-size: 18px; }
    .study { font-size: 17px; font-weight: 700; fill: #52606d; letter-spacing: 0.4px; }
    .flow { stroke: #52606d; stroke-width: 3; fill: none; marker-end: url(#arrow-solid); }
  </style>

  <g transform="translate(0,-40)">

  <rect x="50" y="75" width="760" height="130" rx="7" fill="#e9f2fb" stroke="#3f6f9f" stroke-width="2.5"/>
  <text x="430" y="112" text-anchor="middle" class="heading">1. Retrieval-configuration selection (RQ3)</text>
  <text x="430" y="151" text-anchor="middle" class="detail">Public validation: no retrieval / global Top-5 / parent-balanced</text>
  <text x="430" y="180" text-anchor="middle" class="detail">Select and freeze the Single and HiED–DA configurations</text>

  <path d="M430 205 V235" class="flow"/>

  <rect x="50" y="245" width="760" height="125" rx="7" fill="#eef3f8" stroke="#5d7994" stroke-width="2.5"/>
  <text x="430" y="283" text-anchor="middle" class="heading">2. Same-split benchmark positioning (RQ1)</text>
  <text x="430" y="327" text-anchor="middle" class="detail">Internal held-out: Majority / TF-IDF + LR / Single / HiED-DA</text>

  <path d="M430 370 V395" class="flow"/>

  <rect x="50" y="405" width="760" height="150" rx="7" fill="#e7f4f2" stroke="#3f8f88" stroke-width="2.5"/>
  <text x="430" y="443" text-anchor="middle" class="heading">3. Recorded-output disagreement localization (RQ2)</text>
  <rect x="74" y="476" width="220" height="50" rx="5" fill="#f8fcfb" stroke="#74aaa5" stroke-width="1.5"/>
  <rect x="302" y="476" width="220" height="50" rx="5" fill="#f8fcfb" stroke="#74aaa5" stroke-width="1.5"/>
  <rect x="530" y="476" width="256" height="50" rx="5" fill="#f8fcfb" stroke="#74aaa5" stroke-width="1.5"/>
  <text x="184" y="496" text-anchor="middle" class="small-detail">Top-3 candidate</text>
  <text x="184" y="518" text-anchor="middle" class="small-detail">detection</text>
  <text x="412" y="496" text-anchor="middle" class="small-detail">Gold-label</text>
  <text x="412" y="518" text-anchor="middle" class="small-detail">inclusion</text>
  <text x="658" y="496" text-anchor="middle" class="small-detail">Committed-primary</text>
  <text x="658" y="518" text-anchor="middle" class="small-detail">agreement</text>

  <path d="M430 555 V580" class="flow"/>

  <rect x="50" y="590" width="760" height="130" rx="7" fill="#f7f1df" stroke="#a57c24" stroke-width="2.5"/>
  <text x="430" y="628" text-anchor="middle" class="heading">4. Primary-selection interventions (RQ4)</text>
  <text x="430" y="658" text-anchor="middle" class="detail">DA vs. NtS</text>
  <text x="430" y="681" text-anchor="middle" class="detail">Fusion, pairwise comparison, debate,</text>
  <text x="430" y="704" text-anchor="middle" class="detail">and self-consistency variants</text>

  <path d="M430 720 V745" class="flow"/>

  <rect x="50" y="755" width="760" height="140" rx="7" fill="#f3eaf5" stroke="#80558c" stroke-width="2.5"/>
  <text x="430" y="793" text-anchor="middle" class="heading">5. Sensitivity and transfer analyses (RQ5)</text>
  <text x="430" y="834" text-anchor="middle" class="detail">Model scale and MDD-5k</text>
  <text x="430" y="865" text-anchor="middle" class="detail">Diagnostic scope, cross-corpus transfer, and disagreement patterns</text>

  <rect x="880" y="180" width="470" height="650" rx="7" fill="#f7f8fa" stroke="#52606d" stroke-width="2.5" stroke-dasharray="10 7"/>
  <text x="1115" y="217" text-anchor="middle" class="study">ONGOING COMPLEMENTARY</text>
  <text x="1115" y="240" text-anchor="middle" class="study">CLINICAL STUDIES</text>

  <rect x="910" y="275" width="410" height="190" rx="6" fill="#eef4f7" stroke="#697784" stroke-width="1.8"/>
  <text x="1115" y="313" text-anchor="middle" class="heading">LingxiDiag Pilot Review</text>
  <text x="1115" y="351" text-anchor="middle" class="detail">20 selected disagreement cases</text>
  <text x="1115" y="381" text-anchor="middle" class="detail">from the internal held-out set</text>
  <text x="1115" y="414" text-anchor="middle" class="detail">Blinded review by two psychiatrists</text>
  <text x="1115" y="443" text-anchor="middle" class="study">ONGOING</text>

  <rect x="910" y="505" width="410" height="255" rx="6" fill="#f2f3f8" stroke="#697784" stroke-width="1.8"/>
  <text x="1115" y="546" text-anchor="middle" class="heading">CGMH Real-World Validation</text>
  <text x="1115" y="590" text-anchor="middle" class="detail">Real-world psychiatric consultations</text>
  <text x="1115" y="620" text-anchor="middle" class="detail">Agreement with recorded diagnoses and</text>
  <text x="1115" y="650" text-anchor="middle" class="detail">a blinded psychiatrist</text>
  <text x="1115" y="680" text-anchor="middle" class="detail">transcript-only reference</text>
  <text x="1115" y="718" text-anchor="middle" class="study">ONGOING</text>
  </g>
</svg>
