<svg xmlns="http://www.w3.org/2000/svg" width="1200" height="500" viewBox="0 0 1200 500">
  <rect width="1200" height="500" fill="#ffffff"/>
  <style>
    text { font-family: Verdana; fill: #1f2933; }
    .title { font-size: 27px; font-weight: 700; }
    .rq { font-size: 18px; font-weight: 700; }
    .heading { font-size: 21px; font-weight: 700; }
    .detail { font-size: 15px; }
    .arrow { stroke: #52606d; stroke-width: 3; fill: none; }
  </style>

  <text x="600" y="45" text-anchor="middle" class="title">Empirical evidence framework</text>

  <rect x="35" y="120" width="200" height="210" rx="6" fill="#e9f2fb" stroke="#3f6f9f" stroke-width="2"/>
  <text x="135" y="154" text-anchor="middle" class="rq">RQ1</text>
  <text x="135" y="190" text-anchor="middle" class="heading">Predictive</text>
  <text x="135" y="218" text-anchor="middle" class="heading">positioning</text>
  <text x="135" y="263" text-anchor="middle" class="detail">Validation selection</text>
  <text x="135" y="287" text-anchor="middle" class="detail">Held-out comparison</text>

  <path d="M 235 225 L 270 225" class="arrow"/>
  <path d="M 260 216 L 270 225 L 260 234" class="arrow"/>

  <rect x="270" y="120" width="200" height="210" rx="6" fill="#e7f4f2" stroke="#3f8f88" stroke-width="2"/>
  <text x="370" y="154" text-anchor="middle" class="rq">RQ2</text>
  <text x="370" y="190" text-anchor="middle" class="heading">Failure</text>
  <text x="370" y="218" text-anchor="middle" class="heading">localization</text>
  <text x="370" y="263" text-anchor="middle" class="detail">Detection, retention,</text>
  <text x="370" y="287" text-anchor="middle" class="detail">and commitment</text>

  <path d="M 470 225 L 505 225" class="arrow"/>
  <path d="M 495 216 L 505 225 L 495 234" class="arrow"/>

  <rect x="505" y="120" width="200" height="210" rx="6" fill="#f7f1df" stroke="#a57c24" stroke-width="2"/>
  <text x="605" y="154" text-anchor="middle" class="rq">RQ3-RQ4</text>
  <text x="605" y="190" text-anchor="middle" class="heading">Mechanism</text>
  <text x="605" y="218" text-anchor="middle" class="heading">testing</text>
  <text x="605" y="263" text-anchor="middle" class="detail">Retrieval, finalization,</text>
  <text x="605" y="287" text-anchor="middle" class="detail">and selection methods</text>

  <path d="M 705 225 L 740 225" class="arrow"/>
  <path d="M 730 216 L 740 225 L 730 234" class="arrow"/>

  <rect x="740" y="120" width="200" height="210" rx="6" fill="#f3eaf5" stroke="#80558c" stroke-width="2"/>
  <text x="840" y="154" text-anchor="middle" class="rq">RQ5</text>
  <text x="840" y="190" text-anchor="middle" class="heading">Robustness</text>
  <text x="840" y="218" text-anchor="middle" class="heading">and transfer</text>
  <text x="840" y="263" text-anchor="middle" class="detail">Model scale, MDD-5k,</text>
  <text x="840" y="287" text-anchor="middle" class="detail">scope, and error views</text>

  <path d="M 940 225 L 975 225" class="arrow"/>
  <path d="M 965 216 L 975 225 L 965 234" class="arrow"/>

  <rect x="975" y="120" width="190" height="210" rx="6" fill="#f7f8fa" stroke="#7b8794" stroke-width="2" stroke-dasharray="9 6"/>
  <text x="1070" y="154" text-anchor="middle" class="rq">Future study</text>
  <text x="1070" y="190" text-anchor="middle" class="heading">Clinical</text>
  <text x="1070" y="218" text-anchor="middle" class="heading">interpretation</text>
  <text x="1070" y="263" text-anchor="middle" class="detail">Blinded review and</text>
  <text x="1070" y="287" text-anchor="middle" class="detail">reference adjudication</text>

  <line x1="180" y1="390" x2="240" y2="390" stroke="#52606d" stroke-width="3"/>
  <text x="255" y="396" class="detail">Executed thesis evidence</text>
  <line x1="575" y1="390" x2="635" y2="390" stroke="#7b8794" stroke-width="3" stroke-dasharray="9 6"/>
  <text x="650" y="396" class="detail">Proposed clinical review; not executed</text>
</svg>
