<svg xmlns="http://www.w3.org/2000/svg" width="1200" height="620" viewBox="0 0 1200 620">
  <rect width="1200" height="620" fill="#ffffff"/>
  <style>
    text { font-family: Verdana; fill: #1f2933; }
    .title { font-size: 27px; font-weight: 700; }
    .rq { font-size: 18px; font-weight: 700; }
    .heading { font-size: 21px; font-weight: 700; }
    .detail { font-size: 15px; }
    .arrow { stroke: #52606d; stroke-width: 3; fill: none; }
  </style>

  <text x="600" y="45" text-anchor="middle" class="title">Empirical evidence framework</text>

  <rect x="45" y="120" width="240" height="210" rx="6" fill="#e9f2fb" stroke="#3f6f9f" stroke-width="2"/>
  <text x="165" y="154" text-anchor="middle" class="rq">RQ1</text>
  <text x="165" y="190" text-anchor="middle" class="heading">Predictive</text>
  <text x="165" y="218" text-anchor="middle" class="heading">positioning</text>
  <text x="165" y="263" text-anchor="middle" class="detail">Validation selection</text>
  <text x="165" y="287" text-anchor="middle" class="detail">Held-out comparison</text>

  <path d="M 285 225 L 330 225" class="arrow"/>
  <path d="M 320 216 L 330 225 L 320 234" class="arrow"/>

  <rect x="330" y="120" width="240" height="210" rx="6" fill="#e7f4f2" stroke="#3f8f88" stroke-width="2"/>
  <text x="450" y="154" text-anchor="middle" class="rq">RQ2</text>
  <text x="450" y="190" text-anchor="middle" class="heading">Failure</text>
  <text x="450" y="218" text-anchor="middle" class="heading">localization</text>
  <text x="450" y="263" text-anchor="middle" class="detail">Detection, verification,</text>
  <text x="450" y="287" text-anchor="middle" class="detail">and primary selection</text>

  <path d="M 570 225 L 615 225" class="arrow"/>
  <path d="M 605 216 L 615 225 L 605 234" class="arrow"/>

  <rect x="615" y="120" width="240" height="210" rx="6" fill="#f7f1df" stroke="#a57c24" stroke-width="2"/>
  <text x="735" y="154" text-anchor="middle" class="rq">RQ3-RQ4</text>
  <text x="735" y="190" text-anchor="middle" class="heading">Mechanism</text>
  <text x="735" y="218" text-anchor="middle" class="heading">testing</text>
  <text x="735" y="263" text-anchor="middle" class="detail">Retrieval and finalization</text>
  <text x="735" y="287" text-anchor="middle" class="detail">Primary-selection methods</text>

  <path d="M 855 225 L 900 225" class="arrow"/>
  <path d="M 890 216 L 900 225 L 890 234" class="arrow"/>

  <rect x="900" y="120" width="255" height="210" rx="6" fill="#f3eaf5" stroke="#80558c" stroke-width="2"/>
  <text x="1027" y="154" text-anchor="middle" class="rq">RQ5</text>
  <text x="1027" y="190" text-anchor="middle" class="heading">Robustness</text>
  <text x="1027" y="218" text-anchor="middle" class="heading">and transfer</text>
  <text x="1027" y="263" text-anchor="middle" class="detail">Model scale, MDD-5k,</text>
  <text x="1027" y="287" text-anchor="middle" class="detail">scope, and error patterns</text>

  <path d="M 450 330 L 450 375" class="arrow"/>
  <path d="M 441 365 L 450 375 L 459 365" class="arrow"/>

  <rect x="330" y="375" width="540" height="150" rx="6" fill="#f7f8fa" stroke="#52606d" stroke-width="2" stroke-dasharray="10 7"/>
  <text x="600" y="407" text-anchor="middle" class="rq">ONGOING STUDY</text>
  <text x="600" y="445" text-anchor="middle" class="heading">Psychiatrist case review</text>
  <text x="600" y="479" text-anchor="middle" class="detail">Selected primary-selection-gap cases</text>
  <text x="600" y="503" text-anchor="middle" class="detail">Partial results excluded until completion</text>

  <line x1="290" y1="575" x2="350" y2="575" stroke="#52606d" stroke-width="3" stroke-dasharray="10 7"/>
  <text x="365" y="581" class="detail">Ongoing study; not included in Chapters 6 and 7 quantitative conclusions</text>
</svg>
