<svg xmlns="http://www.w3.org/2000/svg" width="1200" height="720" viewBox="0 0 1200 720">
  <rect width="1200" height="720" fill="#ffffff"/>
  <style>
    .title { font: 700 34px Arial, sans-serif; fill: #18212b; }
    .axis { font: 19px Arial, sans-serif; fill: #3f4a55; }
    .group { font: 700 25px Arial, sans-serif; fill: #18212b; }
    .value { font: 700 22px Arial, sans-serif; fill: #18212b; }
    .note { font: 18px Arial, sans-serif; fill: #4d5965; }
    .grid { stroke: #d7dde2; stroke-width: 1.5; }
  </style>

  <text x="600" y="48" text-anchor="middle" class="title">Internal and external Top-3-Top-1 selection gaps</text>

  <line x1="130" y1="590" x2="1100" y2="590" stroke="#64717d" stroke-width="2"/>
  <line x1="130" y1="110" x2="130" y2="590" stroke="#64717d" stroke-width="2"/>

  <g class="grid">
    <line x1="130" y1="494" x2="1100" y2="494"/>
    <line x1="130" y1="398" x2="1100" y2="398"/>
    <line x1="130" y1="302" x2="1100" y2="302"/>
    <line x1="130" y1="206" x2="1100" y2="206"/>
    <line x1="130" y1="110" x2="1100" y2="110"/>
  </g>

  <text x="105" y="597" text-anchor="end" class="axis">0.0</text>
  <text x="105" y="501" text-anchor="end" class="axis">0.2</text>
  <text x="105" y="405" text-anchor="end" class="axis">0.4</text>
  <text x="105" y="309" text-anchor="end" class="axis">0.6</text>
  <text x="105" y="213" text-anchor="end" class="axis">0.8</text>
  <text x="105" y="117" text-anchor="end" class="axis">1.0</text>

  <rect x="250" y="341.4" width="125" height="248.6" fill="#477da8"/>
  <rect x="395" y="205.0" width="125" height="385.0" fill="#5aa58d"/>
  <text x="312" y="326" text-anchor="middle" class="value">0.518</text>
  <text x="457" y="190" text-anchor="middle" class="value">0.802</text>
  <text x="385" y="640" text-anchor="middle" class="group">Internal</text>
  <text x="385" y="671" text-anchor="middle" class="note">284 / 1,000 ranked but not selected</text>

  <rect x="680" y="316.0" width="125" height="274.0" fill="#477da8"/>
  <rect x="825" y="181.6" width="125" height="408.4" fill="#5aa58d"/>
  <text x="742" y="301" text-anchor="middle" class="value">0.5708</text>
  <text x="887" y="167" text-anchor="middle" class="value">0.8508</text>
  <text x="815" y="640" text-anchor="middle" class="group">MDD-5k</text>
  <text x="815" y="671" text-anchor="middle" class="note">259 / 925 ranked but not selected</text>

  <rect x="430" y="75" width="22" height="22" fill="#477da8"/>
  <text x="462" y="93" class="axis">Committed Top-1</text>
  <rect x="655" y="75" width="22" height="22" fill="#5aa58d"/>
  <text x="687" y="93" class="axis">Genuine Top-3</text>
</svg>
