<svg xmlns="http://www.w3.org/2000/svg" width="1200" height="660" viewBox="0 0 1200 660">
  <rect width="1200" height="660" fill="#ffffff"/>
  <style>
    text { font-family: Verdana; fill: #1f2933; }
    .title { font-size: 27px; font-weight: 700; }
    .group { font-size: 17px; font-weight: 700; fill: #52606d; }
    .rq { font-size: 18px; font-weight: 700; }
    .heading { font-size: 19px; font-weight: 700; }
    .detail { font-size: 14px; }
    .connector { stroke: #52606d; stroke-width: 2.5; fill: none; stroke-dasharray: 9 7; }
  </style>

  <text x="600" y="43" text-anchor="middle" class="title">Empirical evidence framework</text>

  <rect x="35" y="70" width="1130" height="395" rx="6" fill="#fbfcfd" stroke="#9aa5b1" stroke-width="2"/>
  <text x="60" y="104" class="group">MAIN COMPUTATIONAL EVALUATION</text>

  <rect x="65" y="125" width="325" height="135" rx="6" fill="#e9f2fb" stroke="#3f6f9f" stroke-width="2"/>
  <text x="227" y="153" text-anchor="middle" class="rq">RQ1</text>
  <text x="227" y="184" text-anchor="middle" class="heading">Predictive comparison</text>
  <text x="227" y="218" text-anchor="middle" class="detail">Validation selection and</text>
  <text x="227" y="240" text-anchor="middle" class="detail">held-out evaluation</text>

  <rect x="438" y="125" width="325" height="135" rx="6" fill="#e7f4f2" stroke="#3f8f88" stroke-width="2"/>
  <text x="600" y="153" text-anchor="middle" class="rq">RQ2</text>
  <text x="600" y="179" text-anchor="middle" class="heading">Stage-wise failure</text>
  <text x="600" y="202" text-anchor="middle" class="heading">localization</text>
  <text x="600" y="228" text-anchor="middle" class="detail">Candidate detection, criterion verification,</text>
  <text x="600" y="247" text-anchor="middle" class="detail">and primary selection</text>

  <rect x="810" y="125" width="325" height="135" rx="6" fill="#f7f1df" stroke="#a57c24" stroke-width="2"/>
  <text x="972" y="153" text-anchor="middle" class="rq">RQ3</text>
  <text x="972" y="184" text-anchor="middle" class="heading">Retrieval comparison</text>
  <text x="972" y="218" text-anchor="middle" class="detail">No retrieval, global Top-5,</text>
  <text x="972" y="240" text-anchor="middle" class="detail">and parent-balanced retrieval</text>

  <rect x="250" y="295" width="325" height="135" rx="6" fill="#f7f1df" stroke="#a57c24" stroke-width="2"/>
  <text x="412" y="323" text-anchor="middle" class="rq">RQ4</text>
  <text x="412" y="349" text-anchor="middle" class="heading">Primary-selection</text>
  <text x="412" y="372" text-anchor="middle" class="heading">strategies</text>
  <text x="412" y="398" text-anchor="middle" class="detail">Finalization policies and</text>
  <text x="412" y="417" text-anchor="middle" class="detail">additional selection methods</text>

  <rect x="625" y="295" width="325" height="135" rx="6" fill="#f3eaf5" stroke="#80558c" stroke-width="2"/>
  <text x="787" y="323" text-anchor="middle" class="rq">RQ5</text>
  <text x="787" y="349" text-anchor="middle" class="heading">Robustness and</text>
  <text x="787" y="372" text-anchor="middle" class="heading">external transfer</text>
  <text x="787" y="398" text-anchor="middle" class="detail">Model scale, MDD-5k, diagnostic scope,</text>
  <text x="787" y="417" text-anchor="middle" class="detail">and cross-corpus selectors</text>

  <path d="M 600 260 L 600 505" class="connector"/>
  <path d="M 591 495 L 600 505 L 609 495" class="connector"/>
  <rect x="610" y="470" width="170" height="24" fill="#ffffff"/>
  <text x="618" y="487" class="detail">Case-sampling strata</text>

  <rect x="260" y="505" width="680" height="125" rx="6" fill="#f7f8fa" stroke="#52606d" stroke-width="2" stroke-dasharray="10 7"/>
  <text x="600" y="535" text-anchor="middle" class="rq">ONGOING COMPLEMENTARY STUDY</text>
  <text x="600" y="569" text-anchor="middle" class="heading">Psychiatrist case review</text>
  <text x="600" y="598" text-anchor="middle" class="detail">Clinical interpretation of selected benchmark disagreement cases</text>
  <text x="600" y="619" text-anchor="middle" class="detail">Partial results excluded until completion</text>
</svg>
