<svg xmlns="http://www.w3.org/2000/svg" width="1200" height="680" viewBox="0 0 1200 680">
  <rect width="1200" height="680" fill="#ffffff"/>
  <style>
    .axis { font: 19px Arial, sans-serif; fill: #3f4a55; }
    .group { font: 700 25px Arial, sans-serif; fill: #18212b; }
    .value { font: 700 22px Arial, sans-serif; fill: #18212b; }
    .note { font: 18px Arial, sans-serif; fill: #4d5965; }
    .gap { font: 700 18px Arial, sans-serif; fill: #8e2464; }
    .grid { stroke: #d7dde2; stroke-width: 1.5; }
  </style>

  <line x1="130" y1="570" x2="1100" y2="570" stroke="#64717d" stroke-width="2"/>
  <line x1="130" y1="90" x2="130" y2="570" stroke="#64717d" stroke-width="2"/>

  <g class="grid">
    <line x1="130" y1="474" x2="1100" y2="474"/>
    <line x1="130" y1="378" x2="1100" y2="378"/>
    <line x1="130" y1="282" x2="1100" y2="282"/>
    <line x1="130" y1="186" x2="1100" y2="186"/>
    <line x1="130" y1="90" x2="1100" y2="90"/>
  </g>

  <text x="105" y="577" text-anchor="end" class="axis">0.0</text>
  <text x="105" y="481" text-anchor="end" class="axis">0.2</text>
  <text x="105" y="385" text-anchor="end" class="axis">0.4</text>
  <text x="105" y="289" text-anchor="end" class="axis">0.6</text>
  <text x="105" y="193" text-anchor="end" class="axis">0.8</text>
  <text x="105" y="97" text-anchor="end" class="axis">1.0</text>
  <text x="38" y="330" text-anchor="middle" class="axis" transform="rotate(-90 38 330)">Fraction of cases</text>

  <rect x="250" y="321.4" width="125" height="248.6" fill="#477da8"/>
  <rect x="395" y="185.0" width="125" height="385.0" fill="#5aa58d"/>
  <text x="312" y="306" text-anchor="middle" class="value">0.518</text>
  <text x="457" y="170" text-anchor="middle" class="value">0.802</text>
  <text x="385" y="620" text-anchor="middle" class="group">Internal</text>

  <line x1="550" y1="185" x2="550" y2="321.4" stroke="#b83280" stroke-width="3"/>
  <line x1="542" y1="185" x2="558" y2="185" stroke="#b83280" stroke-width="3"/>
  <line x1="542" y1="321.4" x2="558" y2="321.4" stroke="#b83280" stroke-width="3"/>
  <text x="568" y="242" class="gap">Gap 0.284</text>
  <text x="568" y="268" class="note">284 / 1,000</text>

  <rect x="680" y="296.0" width="125" height="274.0" fill="#477da8"/>
  <rect x="825" y="161.6" width="125" height="408.4" fill="#5aa58d"/>
  <text x="742" y="281" text-anchor="middle" class="value">0.571</text>
  <text x="887" y="147" text-anchor="middle" class="value">0.851</text>
  <text x="815" y="620" text-anchor="middle" class="group">MDD-5k</text>

  <line x1="980" y1="161.6" x2="980" y2="296" stroke="#b83280" stroke-width="3"/>
  <line x1="972" y1="161.6" x2="988" y2="161.6" stroke="#b83280" stroke-width="3"/>
  <line x1="972" y1="296" x2="988" y2="296" stroke="#b83280" stroke-width="3"/>
  <text x="998" y="218" class="gap">Gap 0.280</text>
  <text x="998" y="244" class="note">259 / 925</text>

  <rect x="420" y="40" width="22" height="22" fill="#477da8"/>
  <text x="452" y="58" class="axis">Committed Top-1</text>
  <rect x="650" y="40" width="22" height="22" fill="#5aa58d"/>
  <text x="682" y="58" class="axis">Genuine Top-3</text>
</svg>
